<svg xmlns="http://www.w3.org/2000/svg" xmlns:xlink="http://www.w3.org/1999/xlink" width="159.343" height="141.992" viewBox="0 0 159.343 141.992">
  <defs>
    <filter id="Caminho_2" x="0" y="2.329" width="117.296" height="139.661" filterUnits="userSpaceOnUse">
      <feOffset dy="3" input="SourceAlpha"/>
      <feGaussianBlur stdDeviation="3" result="blur"/>
      <feFlood flood-opacity="0.161"/>
      <feComposite operator="in" in2="blur"/>
      <feComposite in="SourceGraphic"/>
    </filter>
    <filter id="Caminho_1" x="0.765" y="0" width="158.578" height="141.992" filterUnits="userSpaceOnUse">
      <feOffset dy="3" input="SourceAlpha"/>
      <feGaussianBlur stdDeviation="3" result="blur-2"/>
      <feFlood flood-opacity="0.71"/>
      <feComposite operator="in" in2="blur-2"/>
      <feComposite in="SourceGraphic"/>
    </filter>
  </defs>
  <g id="LOGO" transform="translate(10.327 7.601)">
    <g transform="matrix(1, 0, 0, 1, -10.33, -7.6)" filter="url(#Caminho_2)">
      <path id="Caminho_2-2" data-name="Caminho 2" d="M128.658,196.357S89.8,213.294,73.634,193.948,64,118.972,64,118.972H32.37l.667,116.372s26.475,2.639,50.38,2.235a357.678,357.678,0,0,0,45.241-3.85Z" transform="translate(-21.86 -109.14)" fill="#e2e2e2" stroke="#707070" stroke-width="3"/>
    </g>
    <g transform="matrix(1, 0, 0, 1, -10.33, -7.6)" filter="url(#Caminho_1)">
      <path id="Caminho_1-2" data-name="Caminho 1" d="M32.189,236.05S136.381,243.666,160,225.363s6.206-46.748-33.346-62.526,5.819-26.254,27.657-24.356V117.331S90.131,111.162,82.32,138.8s19.925,34.683,38.084,44.717,8.544,13.432,8.415,13.432Z" transform="translate(-21.86 -109.14)" fill="#fff" stroke="#707070" stroke-width="3"/>
    </g>
  </g>
</svg>
